<mxfile host="app.diagrams.net" agent="Mozilla/5.0 (Windows NT 10.0; Win64; x64) AppleWebKit/537.36 (KHTML, like Gecko) Chrome/132.0.0.0 Safari/537.36 Edg/132.0.0.0" version="26.0.11">
  <diagram name="Page-1" id="H6L2RB9Yrbp9Wb5DKoLL">
    <mxGraphModel dx="1673" dy="986" grid="1" gridSize="10" guides="1" tooltips="1" connect="1" arrows="1" fold="1" page="1" pageScale="1" pageWidth="1600" pageHeight="900" math="0" shadow="0">
      <root>
        <mxCell id="0" />
        <mxCell id="1" parent="0" />
        <mxCell id="VZ_0_rh7gBu1yl2dpmYh-25" value="job:ci_dev            cicd.yml               job:cd_qa" style="swimlane;startSize=90;fontSize=50;fillColor=light-dark(#00ffff, #ededed);strokeColor=#d6b656;gradientColor=none;swimlaneFillColor=light-dark(#020234, #ededed);fontStyle=1;fontColor=light-dark(#020234, #ededed);shadow=0;glass=0;swimlaneLine=0;fontFamily=Cascadia Code SemiBold;" vertex="1" parent="1">
          <mxGeometry y="10" width="1620" height="1030" as="geometry" />
        </mxCell>
        <mxCell id="VZ_0_rh7gBu1yl2dpmYh-38" style="edgeStyle=orthogonalEdgeStyle;rounded=0;orthogonalLoop=1;jettySize=auto;html=1;entryX=0.5;entryY=0;entryDx=0;entryDy=0;strokeColor=#00FFFF;curved=0;fillColor=#00FFFF;strokeWidth=5;shadow=0;flowAnimation=1;targetPerimeterSpacing=-86;sourcePerimeterSpacing=27;startArrow=ERzeroToMany;startFill=0;jumpStyle=none;jumpSize=0;exitX=0.5;exitY=1;exitDx=0;exitDy=0;" edge="1" parent="VZ_0_rh7gBu1yl2dpmYh-25" source="VZ_0_rh7gBu1yl2dpmYh-30" target="VZ_0_rh7gBu1yl2dpmYh-34">
          <mxGeometry relative="1" as="geometry">
            <mxPoint x="200" y="140" as="sourcePoint" />
            <Array as="points" />
          </mxGeometry>
        </mxCell>
        <mxCell id="VZ_0_rh7gBu1yl2dpmYh-131" style="edgeStyle=orthogonalEdgeStyle;shape=connector;rounded=0;orthogonalLoop=1;jettySize=auto;html=1;entryX=0;entryY=0.5;entryDx=0;entryDy=0;strokeColor=light-dark(#ff03ba, #006f6f);strokeWidth=5;align=center;verticalAlign=middle;fontFamily=Helvetica;fontSize=11;fontColor=default;labelBackgroundColor=default;endArrow=classic;flowAnimation=1;startArrow=ERzeroToMany;startFill=0;" edge="1" parent="VZ_0_rh7gBu1yl2dpmYh-25" target="VZ_0_rh7gBu1yl2dpmYh-127">
          <mxGeometry relative="1" as="geometry">
            <mxPoint x="910" y="440" as="sourcePoint" />
            <Array as="points">
              <mxPoint x="960" y="440" />
              <mxPoint x="960" y="255" />
            </Array>
          </mxGeometry>
        </mxCell>
        <mxCell id="VZ_0_rh7gBu1yl2dpmYh-34" value="" style="rhombus;whiteSpace=wrap;html=1;fillColor=light-dark(#020234, #ededed);strokeColor=light-dark(#fc03b8, #ededed);strokeWidth=18;" vertex="1" parent="VZ_0_rh7gBu1yl2dpmYh-25">
          <mxGeometry x="697" y="345" width="207" height="190" as="geometry" />
        </mxCell>
        <mxCell id="VZ_0_rh7gBu1yl2dpmYh-37" value="&lt;font face=&quot;Cascadia Code ExtraLight&quot; style=&quot;color: rgb(0, 255, 255); font-size: 16px;&quot;&gt;&lt;b style=&quot;&quot;&gt;Check Refs Head&lt;/b&gt;&lt;/font&gt;" style="text;html=1;align=center;verticalAlign=middle;whiteSpace=wrap;rounded=0;fillColor=light-dark(#020234, #ededed);" vertex="1" parent="VZ_0_rh7gBu1yl2dpmYh-25">
          <mxGeometry x="727" y="425" width="146" height="30" as="geometry" />
        </mxCell>
        <mxCell id="VZ_0_rh7gBu1yl2dpmYh-63" style="shape=connector;rounded=0;orthogonalLoop=1;jettySize=auto;html=1;entryX=1;entryY=0.25;entryDx=0;entryDy=0;strokeColor=light-dark(#007fff, #006f6f);strokeWidth=5;align=center;verticalAlign=middle;fontFamily=Helvetica;fontSize=11;fontColor=default;labelBackgroundColor=default;endArrow=classic;flowAnimation=1;endSize=6;edgeStyle=orthogonalEdgeStyle;startArrow=ERzeroToMany;startFill=0;" edge="1" parent="VZ_0_rh7gBu1yl2dpmYh-25" source="VZ_0_rh7gBu1yl2dpmYh-47" target="VZ_0_rh7gBu1yl2dpmYh-59">
          <mxGeometry relative="1" as="geometry" />
        </mxCell>
        <mxCell id="VZ_0_rh7gBu1yl2dpmYh-47" value="&lt;font face=&quot;Cascadia Code SemiBold&quot; style=&quot;font-size: 19px;&quot;&gt;GitHub Secrets&lt;/font&gt;" style="swimlane;whiteSpace=wrap;html=1;startSize=40;fillColor=light-dark(#007FFF,#EDEDED);strokeColor=light-dark(#007FFF,#EDEDED);strokeWidth=10;" vertex="1" parent="VZ_0_rh7gBu1yl2dpmYh-25">
          <mxGeometry x="370" y="380" width="250" height="110" as="geometry" />
        </mxCell>
        <mxCell id="VZ_0_rh7gBu1yl2dpmYh-49" value="&lt;font face=&quot;Cascadia Code ExtraLight&quot; color=&quot;#00ffff&quot;&gt;&lt;span style=&quot;font-size: 19px;&quot;&gt;generate .env.dev file using secrets&lt;/span&gt;&lt;/font&gt;" style="text;html=1;align=center;verticalAlign=middle;whiteSpace=wrap;rounded=0;" vertex="1" parent="VZ_0_rh7gBu1yl2dpmYh-47">
          <mxGeometry x="20" y="20" width="210" height="110" as="geometry" />
        </mxCell>
        <mxCell id="VZ_0_rh7gBu1yl2dpmYh-54" value="&lt;font face=&quot;Cascadia Code ExtraLight&quot; color=&quot;#00ffff&quot;&gt;&lt;span style=&quot;font-size: 19px;&quot;&gt;feature-branch&lt;/span&gt;&lt;/font&gt;" style="text;html=1;align=center;verticalAlign=middle;whiteSpace=wrap;rounded=0;" vertex="1" parent="VZ_0_rh7gBu1yl2dpmYh-25">
          <mxGeometry x="600" y="320" width="160" height="60" as="geometry" />
        </mxCell>
        <mxCell id="VZ_0_rh7gBu1yl2dpmYh-58" value="&lt;font face=&quot;Cascadia Code SemiBold&quot; style=&quot;font-size: 19px; color: rgb(255, 255, 255);&quot;&gt;Create Docker Container&lt;/font&gt;" style="swimlane;whiteSpace=wrap;html=1;startSize=30;fillColor=light-dark(#ff03ba, #ededed);strokeColor=light-dark(#ff03ba, #ededed);strokeWidth=11;" vertex="1" parent="VZ_0_rh7gBu1yl2dpmYh-25">
          <mxGeometry x="30" y="320" width="270" height="110" as="geometry" />
        </mxCell>
        <mxCell id="VZ_0_rh7gBu1yl2dpmYh-59" value="&lt;font face=&quot;Cascadia Code ExtraLight&quot; color=&quot;#00ffff&quot;&gt;&lt;span style=&quot;font-size: 19px;&quot;&gt;run docker-compose.yml&lt;/span&gt;&lt;/font&gt;" style="text;html=1;align=center;verticalAlign=middle;whiteSpace=wrap;rounded=0;strokeColor=none;" vertex="1" parent="VZ_0_rh7gBu1yl2dpmYh-58">
          <mxGeometry x="10" y="10" width="250" height="110" as="geometry" />
        </mxCell>
        <mxCell id="VZ_0_rh7gBu1yl2dpmYh-67" value="&lt;font style=&quot;font-size: 15px;&quot; face=&quot;Cascadia Code ExtraLight&quot; color=&quot;#00ffff&quot;&gt;run-sqlserver.sh&lt;/font&gt;" style="text;html=1;align=center;verticalAlign=middle;whiteSpace=wrap;rounded=0;" vertex="1" parent="VZ_0_rh7gBu1yl2dpmYh-25">
          <mxGeometry x="80" y="610" width="150" height="40" as="geometry" />
        </mxCell>
        <mxCell id="VZ_0_rh7gBu1yl2dpmYh-80" style="edgeStyle=orthogonalEdgeStyle;shape=connector;rounded=0;orthogonalLoop=1;jettySize=auto;html=1;entryX=0;entryY=0.5;entryDx=0;entryDy=0;strokeColor=light-dark(#ff8000, #006f6f);strokeWidth=5;align=center;verticalAlign=middle;fontFamily=Helvetica;fontSize=11;fontColor=default;labelBackgroundColor=default;endArrow=classic;flowAnimation=1;startArrow=ERzeroToMany;startFill=0;" edge="1" parent="VZ_0_rh7gBu1yl2dpmYh-25" source="VZ_0_rh7gBu1yl2dpmYh-69" target="VZ_0_rh7gBu1yl2dpmYh-75">
          <mxGeometry relative="1" as="geometry" />
        </mxCell>
        <mxCell id="VZ_0_rh7gBu1yl2dpmYh-69" value="&lt;font face=&quot;Cascadia Code SemiBold&quot; style=&quot;font-size: 15px;&quot;&gt;Execution&lt;/font&gt;" style="swimlane;whiteSpace=wrap;html=1;startSize=40;fillColor=light-dark(#FF8000,#EDEDED);strokeColor=light-dark(#FF8000,#EDEDED);strokeWidth=10;" vertex="1" parent="VZ_0_rh7gBu1yl2dpmYh-25">
          <mxGeometry x="60" y="780" width="220" height="80" as="geometry" />
        </mxCell>
        <mxCell id="VZ_0_rh7gBu1yl2dpmYh-70" value="&lt;font style=&quot;font-size: 15px;&quot; face=&quot;Cascadia Code ExtraLight&quot; color=&quot;#00ffff&quot;&gt;execute-sql-scripts.sh&lt;/font&gt;" style="text;html=1;align=center;verticalAlign=middle;whiteSpace=wrap;rounded=0;" vertex="1" parent="VZ_0_rh7gBu1yl2dpmYh-69">
          <mxGeometry x="10" y="40" width="210" height="40" as="geometry" />
        </mxCell>
        <mxCell id="VZ_0_rh7gBu1yl2dpmYh-72" style="edgeStyle=orthogonalEdgeStyle;shape=connector;rounded=0;orthogonalLoop=1;jettySize=auto;html=1;entryX=0;entryY=0.5;entryDx=0;entryDy=0;strokeColor=light-dark(#ed03ad, #006f6f);strokeWidth=5;align=center;verticalAlign=middle;fontFamily=Helvetica;fontSize=11;fontColor=default;labelBackgroundColor=default;endArrow=classic;flowAnimation=1;exitX=0;exitY=0.5;exitDx=0;exitDy=0;startArrow=ERzeroToMany;startFill=0;" edge="1" parent="VZ_0_rh7gBu1yl2dpmYh-25" source="VZ_0_rh7gBu1yl2dpmYh-58" target="VZ_0_rh7gBu1yl2dpmYh-69">
          <mxGeometry relative="1" as="geometry">
            <Array as="points">
              <mxPoint x="10" y="375" />
              <mxPoint x="10" y="820" />
            </Array>
          </mxGeometry>
        </mxCell>
        <mxCell id="VZ_0_rh7gBu1yl2dpmYh-73" value="&lt;font style=&quot;font-size: 15px;&quot; face=&quot;Cascadia Code ExtraLight&quot; color=&quot;#00ffff&quot;&gt;init.sql&lt;/font&gt;" style="text;html=1;align=center;verticalAlign=middle;whiteSpace=wrap;rounded=0;" vertex="1" parent="VZ_0_rh7gBu1yl2dpmYh-25">
          <mxGeometry x="340" y="610" width="90" height="40" as="geometry" />
        </mxCell>
        <mxCell id="VZ_0_rh7gBu1yl2dpmYh-74" value="&lt;font face=&quot;Cascadia Code SemiBold&quot; style=&quot;font-size: 15px;&quot;&gt;./scripts/dev/&lt;/font&gt;" style="swimlane;whiteSpace=wrap;html=1;startSize=40;fillColor=light-dark(#FFFF33,#EDEDED);strokeColor=light-dark(#FFFF33,#EDEDED);strokeWidth=8;" vertex="1" parent="VZ_0_rh7gBu1yl2dpmYh-25">
          <mxGeometry x="330" y="570" width="120" height="80" as="geometry" />
        </mxCell>
        <mxCell id="VZ_0_rh7gBu1yl2dpmYh-75" value="&lt;font face=&quot;Cascadia Code SemiBold&quot; style=&quot;font-size: 15px;&quot;&gt;./db/Exec/&lt;/font&gt;" style="swimlane;whiteSpace=wrap;html=1;startSize=40;fillColor=light-dark(#FF8000,#EDEDED);strokeColor=light-dark(#FF8000,#EDEDED);strokeWidth=10;" vertex="1" parent="VZ_0_rh7gBu1yl2dpmYh-25">
          <mxGeometry x="370" y="700" width="120" height="80" as="geometry" />
        </mxCell>
        <mxCell id="VZ_0_rh7gBu1yl2dpmYh-76" value="&lt;font style=&quot;font-size: 15px;&quot; face=&quot;Cascadia Code ExtraLight&quot; color=&quot;#00ffff&quot;&gt;ITBMXXX.sql&lt;/font&gt;" style="text;html=1;align=center;verticalAlign=middle;whiteSpace=wrap;rounded=0;" vertex="1" parent="VZ_0_rh7gBu1yl2dpmYh-75">
          <mxGeometry x="10" y="40" width="100" height="40" as="geometry" />
        </mxCell>
        <mxCell id="VZ_0_rh7gBu1yl2dpmYh-98" value="&lt;font face=&quot;Cascadia Code SemiBold&quot;&gt;&lt;span style=&quot;font-size: 19px;&quot;&gt;Inside the Docker SQL Server Container&lt;/span&gt;&lt;/font&gt;" style="swimlane;whiteSpace=wrap;html=1;startSize=40;fillColor=light-dark(#feb826, #ededed);strokeColor=light-dark(#feb826, #ededed);strokeWidth=10;" vertex="1" parent="VZ_0_rh7gBu1yl2dpmYh-25">
          <mxGeometry x="873.5" y="500" width="710" height="480" as="geometry" />
        </mxCell>
        <mxCell id="VZ_0_rh7gBu1yl2dpmYh-99" value="&lt;font face=&quot;Cascadia Code SemiBold&quot; style=&quot;font-size: 15px;&quot;&gt;./db/Rollback/&lt;/font&gt;" style="swimlane;whiteSpace=wrap;html=1;startSize=40;fillColor=light-dark(#FF0000,#EDEDED);strokeColor=light-dark(#FF0000,#EDEDED);strokeWidth=10;" vertex="1" parent="VZ_0_rh7gBu1yl2dpmYh-98">
          <mxGeometry x="250" y="340" width="120" height="80" as="geometry" />
        </mxCell>
        <mxCell id="VZ_0_rh7gBu1yl2dpmYh-100" value="&lt;font style=&quot;font-size: 15px;&quot; face=&quot;Cascadia Code ExtraLight&quot; color=&quot;#00ffff&quot;&gt;ITBMXXX.sql&lt;/font&gt;" style="text;html=1;align=center;verticalAlign=middle;whiteSpace=wrap;rounded=0;" vertex="1" parent="VZ_0_rh7gBu1yl2dpmYh-99">
          <mxGeometry x="10" y="40" width="100" height="40" as="geometry" />
        </mxCell>
        <mxCell id="VZ_0_rh7gBu1yl2dpmYh-102" style="edgeStyle=orthogonalEdgeStyle;shape=connector;rounded=0;orthogonalLoop=1;jettySize=auto;html=1;entryX=0.419;entryY=0.981;entryDx=0;entryDy=0;entryPerimeter=0;strokeColor=#FF0000;strokeWidth=5;align=center;verticalAlign=middle;fontFamily=Helvetica;fontSize=11;fontColor=default;labelBackgroundColor=default;endArrow=classic;flowAnimation=1;startArrow=ERzeroToMany;startFill=0;" edge="1" parent="VZ_0_rh7gBu1yl2dpmYh-98" source="VZ_0_rh7gBu1yl2dpmYh-99" target="VZ_0_rh7gBu1yl2dpmYh-154">
          <mxGeometry relative="1" as="geometry">
            <mxPoint x="81.7840000000001" y="353.43000000000006" as="targetPoint" />
            <Array as="points">
              <mxPoint x="96" y="380" />
            </Array>
          </mxGeometry>
        </mxCell>
        <mxCell id="VZ_0_rh7gBu1yl2dpmYh-113" style="edgeStyle=orthogonalEdgeStyle;shape=connector;rounded=0;orthogonalLoop=1;jettySize=auto;html=1;entryX=1;entryY=0.5;entryDx=0;entryDy=0;strokeColor=#FF0000;strokeWidth=5;align=center;verticalAlign=middle;fontFamily=Helvetica;fontSize=11;fontColor=default;labelBackgroundColor=default;endArrow=classic;flowAnimation=1;" edge="1" parent="VZ_0_rh7gBu1yl2dpmYh-98" source="VZ_0_rh7gBu1yl2dpmYh-103" target="VZ_0_rh7gBu1yl2dpmYh-99">
          <mxGeometry relative="1" as="geometry" />
        </mxCell>
        <mxCell id="VZ_0_rh7gBu1yl2dpmYh-114" style="edgeStyle=orthogonalEdgeStyle;shape=connector;rounded=0;orthogonalLoop=1;jettySize=auto;html=1;entryX=1;entryY=0.5;entryDx=0;entryDy=0;strokeColor=light-dark(#ff8000, #006f6f);strokeWidth=5;align=center;verticalAlign=middle;fontFamily=Helvetica;fontSize=11;fontColor=default;labelBackgroundColor=default;endArrow=classic;flowAnimation=1;startArrow=ERzeroToMany;startFill=0;" edge="1" parent="VZ_0_rh7gBu1yl2dpmYh-98" source="VZ_0_rh7gBu1yl2dpmYh-103" target="VZ_0_rh7gBu1yl2dpmYh-107">
          <mxGeometry relative="1" as="geometry" />
        </mxCell>
        <mxCell id="VZ_0_rh7gBu1yl2dpmYh-103" value="&lt;font face=&quot;Cascadia Code SemiBold&quot; style=&quot;font-size: 15px;&quot;&gt;Execution&lt;/font&gt;" style="swimlane;whiteSpace=wrap;html=1;startSize=40;fillColor=light-dark(#FF8000,#EDEDED);strokeColor=light-dark(#ff8000, #006f6f);strokeWidth=10;" vertex="1" parent="VZ_0_rh7gBu1yl2dpmYh-98">
          <mxGeometry x="460" y="280" width="220" height="80" as="geometry" />
        </mxCell>
        <mxCell id="VZ_0_rh7gBu1yl2dpmYh-104" value="&lt;font style=&quot;font-size: 15px;&quot; face=&quot;Cascadia Code ExtraLight&quot; color=&quot;#00ffff&quot;&gt;execute-sql-scripts.sh&lt;/font&gt;" style="text;html=1;align=center;verticalAlign=middle;whiteSpace=wrap;rounded=0;" vertex="1" parent="VZ_0_rh7gBu1yl2dpmYh-103">
          <mxGeometry x="10" y="40" width="210" height="40" as="geometry" />
        </mxCell>
        <mxCell id="VZ_0_rh7gBu1yl2dpmYh-107" value="&lt;font face=&quot;Cascadia Code SemiBold&quot; style=&quot;font-size: 15px;&quot;&gt;./db/Exec/&lt;/font&gt;" style="swimlane;whiteSpace=wrap;html=1;startSize=40;fillColor=light-dark(#FF8000,#EDEDED);strokeColor=light-dark(#FF8000,#EDEDED);strokeWidth=10;" vertex="1" parent="VZ_0_rh7gBu1yl2dpmYh-98">
          <mxGeometry x="250" y="210" width="120" height="80" as="geometry" />
        </mxCell>
        <mxCell id="VZ_0_rh7gBu1yl2dpmYh-108" value="&lt;font style=&quot;font-size: 15px;&quot; face=&quot;Cascadia Code ExtraLight&quot; color=&quot;#00ffff&quot;&gt;ITBMXXX.sql&lt;/font&gt;" style="text;html=1;align=center;verticalAlign=middle;whiteSpace=wrap;rounded=0;" vertex="1" parent="VZ_0_rh7gBu1yl2dpmYh-107">
          <mxGeometry x="10" y="40" width="100" height="40" as="geometry" />
        </mxCell>
        <mxCell id="VZ_0_rh7gBu1yl2dpmYh-109" value="&lt;font face=&quot;Cascadia Code SemiBold&quot; style=&quot;font-size: 15px;&quot;&gt;./scripts/qa/&lt;/font&gt;" style="swimlane;whiteSpace=wrap;html=1;startSize=40;fillColor=light-dark(#FFFF33,#EDEDED);strokeColor=light-dark(#FFFF33,#EDEDED);strokeWidth=8;" vertex="1" parent="VZ_0_rh7gBu1yl2dpmYh-98">
          <mxGeometry x="290" y="70" width="120" height="80" as="geometry" />
        </mxCell>
        <mxCell id="VZ_0_rh7gBu1yl2dpmYh-110" value="&lt;font style=&quot;font-size: 15px;&quot; face=&quot;Cascadia Code ExtraLight&quot; color=&quot;#00ffff&quot;&gt;init.sql&lt;/font&gt;" style="text;html=1;align=center;verticalAlign=middle;whiteSpace=wrap;rounded=0;" vertex="1" parent="VZ_0_rh7gBu1yl2dpmYh-109">
          <mxGeometry x="15" y="40" width="90" height="40" as="geometry" />
        </mxCell>
        <mxCell id="VZ_0_rh7gBu1yl2dpmYh-118" style="edgeStyle=orthogonalEdgeStyle;shape=connector;rounded=0;orthogonalLoop=1;jettySize=auto;html=1;entryX=1;entryY=0.5;entryDx=0;entryDy=0;strokeColor=light-dark(#ffff33, #006f6f);strokeWidth=5;align=center;verticalAlign=middle;fontFamily=Helvetica;fontSize=11;fontColor=default;labelBackgroundColor=default;endArrow=classic;flowAnimation=1;startArrow=ERzeroToMany;startFill=0;" edge="1" parent="VZ_0_rh7gBu1yl2dpmYh-98" source="VZ_0_rh7gBu1yl2dpmYh-111" target="VZ_0_rh7gBu1yl2dpmYh-109">
          <mxGeometry relative="1" as="geometry" />
        </mxCell>
        <mxCell id="VZ_0_rh7gBu1yl2dpmYh-111" value="&lt;font face=&quot;Cascadia Code SemiBold&quot; style=&quot;font-size: 15px;&quot;&gt;Initialization&lt;/font&gt;" style="swimlane;whiteSpace=wrap;html=1;startSize=40;fillColor=light-dark(#FFFF33,#EDEDED);strokeColor=light-dark(#ffff33, #006f6f);strokeWidth=8;" vertex="1" parent="VZ_0_rh7gBu1yl2dpmYh-98">
          <mxGeometry x="510" y="70" width="170" height="80" as="geometry" />
        </mxCell>
        <mxCell id="VZ_0_rh7gBu1yl2dpmYh-112" value="&lt;font style=&quot;font-size: 15px;&quot; face=&quot;Cascadia Code ExtraLight&quot; color=&quot;#00ffff&quot;&gt;run-sqlserver.sh&lt;/font&gt;" style="text;html=1;align=center;verticalAlign=middle;whiteSpace=wrap;rounded=0;" vertex="1" parent="VZ_0_rh7gBu1yl2dpmYh-111">
          <mxGeometry x="10" y="40" width="150" height="40" as="geometry" />
        </mxCell>
        <mxCell id="VZ_0_rh7gBu1yl2dpmYh-117" style="edgeStyle=orthogonalEdgeStyle;shape=connector;rounded=0;orthogonalLoop=1;jettySize=auto;html=1;entryX=0.823;entryY=0.699;entryDx=0;entryDy=0;entryPerimeter=0;strokeColor=light-dark(#ff8000, #006f6f);strokeWidth=5;align=center;verticalAlign=middle;fontFamily=Helvetica;fontSize=11;fontColor=default;labelBackgroundColor=default;endArrow=classic;flowAnimation=1;startSize=0;startArrow=ERzeroToMany;startFill=0;" edge="1" parent="VZ_0_rh7gBu1yl2dpmYh-98" target="VZ_0_rh7gBu1yl2dpmYh-154">
          <mxGeometry relative="1" as="geometry">
            <mxPoint x="310" y="300" as="sourcePoint" />
            <mxPoint x="150.04800000000023" y="309.97" as="targetPoint" />
            <Array as="points">
              <mxPoint x="310" y="310" />
            </Array>
          </mxGeometry>
        </mxCell>
        <mxCell id="VZ_0_rh7gBu1yl2dpmYh-143" value="" style="edgeStyle=orthogonalEdgeStyle;shape=connector;rounded=0;orthogonalLoop=1;jettySize=auto;html=1;strokeColor=light-dark(#ffff33, #006f6f);strokeWidth=5;align=center;verticalAlign=middle;fontFamily=Helvetica;fontSize=11;fontColor=default;labelBackgroundColor=default;endArrow=classic;flowAnimation=1;entryX=0.962;entryY=0.428;entryDx=0;entryDy=0;entryPerimeter=0;startArrow=ERzeroToMany;startFill=0;" edge="1" parent="VZ_0_rh7gBu1yl2dpmYh-98" source="VZ_0_rh7gBu1yl2dpmYh-109">
          <mxGeometry relative="1" as="geometry">
            <mxPoint x="1163.5" y="620" as="sourcePoint" />
            <mxPoint x="142.91584000000057" y="109.92999999999984" as="targetPoint" />
            <Array as="points" />
          </mxGeometry>
        </mxCell>
        <mxCell id="VZ_0_rh7gBu1yl2dpmYh-150" value="" style="sketch=0;aspect=fixed;pointerEvents=1;shadow=0;dashed=0;html=1;strokeColor=none;labelPosition=center;verticalLabelPosition=bottom;verticalAlign=top;align=center;fillColor=light-dark(#e7a723, #bfd3ff);shape=mxgraph.mscae.enterprise.database_server;fontFamily=Helvetica;fontSize=11;fontColor=default;labelBackgroundColor=default;" vertex="1" parent="VZ_0_rh7gBu1yl2dpmYh-98">
          <mxGeometry x="66.5" y="60" width="76" height="100" as="geometry" />
        </mxCell>
        <mxCell id="VZ_0_rh7gBu1yl2dpmYh-154" value="" style="html=1;verticalLabelPosition=bottom;align=center;labelBackgroundColor=#ffffff;verticalAlign=top;strokeWidth=2;strokeColor=light-dark(#020234, #32a0ff);shadow=0;dashed=0;shape=mxgraph.ios7.icons.data;fontFamily=Helvetica;fontSize=11;fontColor=default;fillColor=light-dark(#e1a322, #ededed);" vertex="1" parent="VZ_0_rh7gBu1yl2dpmYh-98">
          <mxGeometry x="66.5" y="240" width="70" height="100" as="geometry" />
        </mxCell>
        <mxCell id="VZ_0_rh7gBu1yl2dpmYh-123" value="&lt;font face=&quot;Cascadia Code SemiBold&quot; style=&quot;font-size: 19px;&quot;&gt;GitHub Secrets&lt;/font&gt;" style="swimlane;whiteSpace=wrap;html=1;startSize=40;fillColor=light-dark(#007FFF,#EDEDED);strokeColor=light-dark(#007fff, #006f6f);strokeWidth=10;align=center;verticalAlign=middle;fontFamily=Helvetica;fontSize=12;fontColor=default;fontStyle=1;" vertex="1" parent="VZ_0_rh7gBu1yl2dpmYh-25">
          <mxGeometry x="1000" y="380" width="250" height="110" as="geometry" />
        </mxCell>
        <mxCell id="VZ_0_rh7gBu1yl2dpmYh-124" value="&lt;font face=&quot;Cascadia Code ExtraLight&quot; color=&quot;#00ffff&quot;&gt;&lt;span style=&quot;font-size: 19px;&quot;&gt;generate .env.qa file using secrets&lt;/span&gt;&lt;/font&gt;" style="text;html=1;align=center;verticalAlign=middle;whiteSpace=wrap;rounded=0;fontFamily=Helvetica;fontSize=12;fontColor=default;fontStyle=1;" vertex="1" parent="VZ_0_rh7gBu1yl2dpmYh-123">
          <mxGeometry x="20" y="20" width="210" height="110" as="geometry" />
        </mxCell>
        <mxCell id="VZ_0_rh7gBu1yl2dpmYh-119" value="&lt;font face=&quot;Cascadia Code SemiBold&quot; style=&quot;font-size: 19px; color: rgb(255, 255, 255);&quot;&gt;Create Docker Container&lt;/font&gt;" style="swimlane;whiteSpace=wrap;html=1;startSize=30;fillColor=light-dark(#ff03ba, #ededed);strokeColor=light-dark(#ed03ad, #006f6f);strokeWidth=11;" vertex="1" parent="VZ_0_rh7gBu1yl2dpmYh-25">
          <mxGeometry x="1313.5" y="330" width="270" height="110" as="geometry" />
        </mxCell>
        <mxCell id="VZ_0_rh7gBu1yl2dpmYh-121" style="edgeStyle=orthogonalEdgeStyle;shape=connector;rounded=0;orthogonalLoop=1;jettySize=auto;html=1;strokeColor=light-dark(#ff03ba, #006f6f);strokeWidth=5;align=center;verticalAlign=middle;fontFamily=Helvetica;fontSize=11;fontColor=default;labelBackgroundColor=default;endArrow=classic;flowAnimation=1;exitX=1;exitY=1;exitDx=0;exitDy=0;startArrow=ERzeroToMany;startFill=0;sourcePerimeterSpacing=0;" edge="1" parent="VZ_0_rh7gBu1yl2dpmYh-119" source="VZ_0_rh7gBu1yl2dpmYh-120">
          <mxGeometry relative="1" as="geometry">
            <mxPoint x="240" y="275" as="targetPoint" />
            <Array as="points">
              <mxPoint x="260" y="275" />
            </Array>
          </mxGeometry>
        </mxCell>
        <mxCell id="VZ_0_rh7gBu1yl2dpmYh-120" value="&lt;font face=&quot;Cascadia Code ExtraLight&quot; color=&quot;#00ffff&quot;&gt;&lt;span style=&quot;font-size: 19px;&quot;&gt;run docker-compose.yml&lt;/span&gt;&lt;/font&gt;" style="text;html=1;align=center;verticalAlign=middle;whiteSpace=wrap;rounded=0;strokeColor=none;" vertex="1" parent="VZ_0_rh7gBu1yl2dpmYh-119">
          <mxGeometry x="10" y="10" width="250" height="110" as="geometry" />
        </mxCell>
        <mxCell id="VZ_0_rh7gBu1yl2dpmYh-122" style="edgeStyle=orthogonalEdgeStyle;shape=connector;rounded=0;orthogonalLoop=1;jettySize=auto;html=1;entryX=1;entryY=0.5;entryDx=0;entryDy=0;strokeColor=light-dark(#ff03ba, #006f6f);strokeWidth=5;align=center;verticalAlign=middle;fontFamily=Helvetica;fontSize=11;fontColor=default;labelBackgroundColor=default;endArrow=classic;flowAnimation=1;startArrow=ERzeroToMany;startFill=0;" edge="1" parent="VZ_0_rh7gBu1yl2dpmYh-25" target="VZ_0_rh7gBu1yl2dpmYh-104">
          <mxGeometry relative="1" as="geometry">
            <mxPoint x="1590" y="395" as="sourcePoint" />
            <Array as="points">
              <mxPoint x="1610" y="395" />
              <mxPoint x="1610" y="840" />
            </Array>
          </mxGeometry>
        </mxCell>
        <mxCell id="VZ_0_rh7gBu1yl2dpmYh-126" style="edgeStyle=orthogonalEdgeStyle;shape=connector;rounded=0;orthogonalLoop=1;jettySize=auto;html=1;entryX=0.014;entryY=0.086;entryDx=0;entryDy=0;entryPerimeter=0;strokeColor=light-dark(#007fff, #006f6f);strokeWidth=5;align=center;verticalAlign=middle;fontFamily=Helvetica;fontSize=11;fontColor=default;labelBackgroundColor=default;endArrow=classic;flowAnimation=1;startArrow=ERzeroToMany;startFill=0;" edge="1" parent="VZ_0_rh7gBu1yl2dpmYh-25" source="VZ_0_rh7gBu1yl2dpmYh-123" target="VZ_0_rh7gBu1yl2dpmYh-120">
          <mxGeometry relative="1" as="geometry" />
        </mxCell>
        <mxCell id="VZ_0_rh7gBu1yl2dpmYh-127" value="&lt;font face=&quot;Cascadia Code SemiBold&quot; style=&quot;font-size: 19px; color: rgb(255, 255, 255);&quot;&gt;Extract Folder&lt;/font&gt;" style="swimlane;whiteSpace=wrap;html=1;startSize=40;fillColor=light-dark(#c728ff, #ededed);strokeColor=light-dark(#c728ff, #ededed);strokeWidth=10;" vertex="1" parent="VZ_0_rh7gBu1yl2dpmYh-25">
          <mxGeometry x="1020" y="190" width="280" height="130" as="geometry" />
        </mxCell>
        <mxCell id="VZ_0_rh7gBu1yl2dpmYh-128" value="&lt;font face=&quot;Cascadia Code ExtraLight&quot; color=&quot;#00ffff&quot;&gt;&lt;span style=&quot;font-size: 19px;&quot;&gt;feature/ITBMSPR-xxxxx&lt;/span&gt;&lt;/font&gt;" style="text;html=1;align=center;verticalAlign=middle;whiteSpace=wrap;rounded=0;strokeColor=light-dark(#c728ff, #006f6f);" vertex="1" parent="VZ_0_rh7gBu1yl2dpmYh-127">
          <mxGeometry x="10" y="30" width="260" height="100" as="geometry" />
        </mxCell>
        <mxCell id="VZ_0_rh7gBu1yl2dpmYh-129" style="edgeStyle=orthogonalEdgeStyle;shape=connector;rounded=0;orthogonalLoop=1;jettySize=auto;html=1;entryX=0.5;entryY=0;entryDx=0;entryDy=0;strokeColor=light-dark(#c728ff, #006f6f);strokeWidth=5;align=center;verticalAlign=middle;fontFamily=Helvetica;fontSize=11;fontColor=default;labelBackgroundColor=default;endArrow=classic;flowAnimation=1;endSize=6;startArrow=ERzeroToMany;startFill=0;" edge="1" parent="VZ_0_rh7gBu1yl2dpmYh-25" source="VZ_0_rh7gBu1yl2dpmYh-128" target="VZ_0_rh7gBu1yl2dpmYh-123">
          <mxGeometry relative="1" as="geometry" />
        </mxCell>
        <mxCell id="VZ_0_rh7gBu1yl2dpmYh-132" value="&lt;font face=&quot;Cascadia Code ExtraLight&quot; color=&quot;#00ffff&quot;&gt;&lt;span style=&quot;font-size: 19px;&quot;&gt;develop-branch&lt;/span&gt;&lt;/font&gt;" style="text;html=1;align=center;verticalAlign=middle;whiteSpace=wrap;rounded=0;" vertex="1" parent="VZ_0_rh7gBu1yl2dpmYh-25">
          <mxGeometry x="870" y="320" width="160" height="60" as="geometry" />
        </mxCell>
        <mxCell id="VZ_0_rh7gBu1yl2dpmYh-32" value="&lt;font face=&quot;Cascadia Code SemiBold&quot; style=&quot;font-size: 19px;&quot;&gt;Git Command&lt;/font&gt;" style="swimlane;whiteSpace=wrap;html=1;startSize=40;fillColor=light-dark(#00ffff, #ededed);strokeColor=light-dark(#00ffff, #ededed);strokeWidth=10;" vertex="1" parent="VZ_0_rh7gBu1yl2dpmYh-25">
          <mxGeometry x="705" y="110" width="190" height="140" as="geometry" />
        </mxCell>
        <mxCell id="VZ_0_rh7gBu1yl2dpmYh-39" style="edgeStyle=orthogonalEdgeStyle;rounded=0;orthogonalLoop=1;jettySize=auto;html=1;exitX=1;exitY=0.5;exitDx=0;exitDy=0;" edge="1" parent="VZ_0_rh7gBu1yl2dpmYh-32" source="VZ_0_rh7gBu1yl2dpmYh-30">
          <mxGeometry relative="1" as="geometry">
            <mxPoint x="190" y="10" as="targetPoint" />
          </mxGeometry>
        </mxCell>
        <mxCell id="VZ_0_rh7gBu1yl2dpmYh-30" value="&lt;font face=&quot;Cascadia Code ExtraLight&quot; style=&quot;color: light-dark(rgb(0, 255, 255), rgb(237, 237, 237)); font-size: 19px;&quot;&gt;git push &lt;br&gt;or &lt;br&gt;git pull&lt;/font&gt;" style="text;html=1;align=center;verticalAlign=middle;whiteSpace=wrap;rounded=0;" vertex="1" parent="VZ_0_rh7gBu1yl2dpmYh-32">
          <mxGeometry x="-10" y="30" width="210" height="110" as="geometry" />
        </mxCell>
        <mxCell id="VZ_0_rh7gBu1yl2dpmYh-149" value="" style="sketch=0;aspect=fixed;pointerEvents=1;shadow=0;dashed=0;html=1;strokeColor=none;labelPosition=center;verticalLabelPosition=bottom;verticalAlign=top;align=center;fillColor=light-dark(#e7a723, #bfd3ff);shape=mxgraph.mscae.enterprise.database_server;fontFamily=Helvetica;fontSize=11;fontColor=default;labelBackgroundColor=default;" vertex="1" parent="VZ_0_rh7gBu1yl2dpmYh-25">
          <mxGeometry x="600" y="570" width="76" height="100" as="geometry" />
        </mxCell>
        <mxCell id="VZ_0_rh7gBu1yl2dpmYh-162" value="" style="image;sketch=0;aspect=fixed;html=1;points=[];align=center;fontSize=12;image=img/lib/mscae/Docker.svg;fontFamily=Helvetica;fontColor=default;labelBackgroundColor=default;" vertex="1" parent="VZ_0_rh7gBu1yl2dpmYh-25">
          <mxGeometry x="60" y="180" width="158.54" height="130" as="geometry" />
        </mxCell>
        <mxCell id="VZ_0_rh7gBu1yl2dpmYh-163" value="" style="image;sketch=0;aspect=fixed;html=1;points=[];align=center;fontSize=12;image=img/lib/mscae/Docker.svg;fontFamily=Helvetica;fontColor=default;labelBackgroundColor=default;" vertex="1" parent="VZ_0_rh7gBu1yl2dpmYh-25">
          <mxGeometry x="1369.23" y="190" width="158.54" height="130" as="geometry" />
        </mxCell>
        <mxCell id="VZ_0_rh7gBu1yl2dpmYh-165" value="" style="shape=image;html=1;verticalAlign=top;verticalLabelPosition=bottom;labelBackgroundColor=#ffffff;imageAspect=0;aspect=fixed;image=https://cdn4.iconfinder.com/data/icons/ionicons/512/icon-social-github-128.png;fontFamily=Helvetica;fontSize=11;fontColor=default;" vertex="1" parent="VZ_0_rh7gBu1yl2dpmYh-25">
          <mxGeometry x="451" width="88" height="88" as="geometry" />
        </mxCell>
        <mxCell id="VZ_0_rh7gBu1yl2dpmYh-166" value="" style="shape=image;html=1;verticalAlign=top;verticalLabelPosition=bottom;labelBackgroundColor=#ffffff;imageAspect=0;aspect=fixed;image=https://cdn4.iconfinder.com/data/icons/ionicons/512/icon-social-github-128.png;fontFamily=Helvetica;fontSize=11;fontColor=default;" vertex="1" parent="VZ_0_rh7gBu1yl2dpmYh-25">
          <mxGeometry x="1040" width="88" height="88" as="geometry" />
        </mxCell>
        <mxCell id="VZ_0_rh7gBu1yl2dpmYh-169" value="" style="image;aspect=fixed;html=1;points=[];align=center;fontSize=12;image=img/lib/azure2/databases/SQL_Server.svg;fontFamily=Helvetica;fontColor=default;labelBackgroundColor=default;" vertex="1" parent="VZ_0_rh7gBu1yl2dpmYh-25">
          <mxGeometry x="751.5" y="690" width="117" height="117" as="geometry" />
        </mxCell>
        <mxCell id="VZ_0_rh7gBu1yl2dpmYh-51" style="shape=connector;rounded=0;orthogonalLoop=1;jettySize=auto;html=1;strokeColor=light-dark(#c728ff, #006f6f);strokeWidth=5;align=center;verticalAlign=middle;fontFamily=Helvetica;fontSize=11;fontColor=default;labelBackgroundColor=default;endArrow=classic;flowAnimation=1;endSize=6;entryX=0.5;entryY=0;entryDx=0;entryDy=0;edgeStyle=orthogonalEdgeStyle;startArrow=ERzeroToMany;startFill=0;" edge="1" parent="1" source="VZ_0_rh7gBu1yl2dpmYh-41" target="VZ_0_rh7gBu1yl2dpmYh-47">
          <mxGeometry relative="1" as="geometry">
            <mxPoint x="450" y="370" as="targetPoint" />
          </mxGeometry>
        </mxCell>
        <mxCell id="VZ_0_rh7gBu1yl2dpmYh-41" value="&lt;font face=&quot;Cascadia Code SemiBold&quot; style=&quot;font-size: 19px; color: rgb(255, 255, 255);&quot;&gt;Extract Folder&lt;/font&gt;" style="swimlane;whiteSpace=wrap;html=1;startSize=40;fillColor=light-dark(#c728ff, #ededed);strokeColor=light-dark(#c728ff, #ededed);strokeWidth=10;" vertex="1" parent="1">
          <mxGeometry x="310" y="190" width="280" height="130" as="geometry" />
        </mxCell>
        <mxCell id="VZ_0_rh7gBu1yl2dpmYh-43" value="&lt;font face=&quot;Cascadia Code ExtraLight&quot; color=&quot;#00ffff&quot;&gt;&lt;span style=&quot;font-size: 19px;&quot;&gt;feature/ITBMSPR-xxxxx&lt;/span&gt;&lt;/font&gt;" style="text;html=1;align=center;verticalAlign=middle;whiteSpace=wrap;rounded=0;" vertex="1" parent="VZ_0_rh7gBu1yl2dpmYh-41">
          <mxGeometry x="10" y="30" width="260" height="100" as="geometry" />
        </mxCell>
        <mxCell id="VZ_0_rh7gBu1yl2dpmYh-44" style="edgeStyle=orthogonalEdgeStyle;rounded=0;orthogonalLoop=1;jettySize=auto;html=1;entryX=1;entryY=0.5;entryDx=0;entryDy=0;strokeColor=light-dark(#ff03ba, #006f6f);strokeWidth=5;flowAnimation=1;align=center;verticalAlign=middle;fontFamily=Helvetica;fontSize=11;fontColor=default;labelBackgroundColor=default;endArrow=classic;startArrow=ERzeroToMany;startFill=0;" edge="1" parent="1" target="VZ_0_rh7gBu1yl2dpmYh-43">
          <mxGeometry relative="1" as="geometry">
            <mxPoint x="690" y="452" as="sourcePoint" />
            <Array as="points">
              <mxPoint x="650" y="452" />
              <mxPoint x="650" y="270" />
            </Array>
          </mxGeometry>
        </mxCell>
        <mxCell id="VZ_0_rh7gBu1yl2dpmYh-52" value="&lt;font face=&quot;Cascadia Code SemiBold&quot;&gt;&lt;span style=&quot;font-size: 19px;&quot;&gt;Inside the Docker SQL Server Container&lt;/span&gt;&lt;/font&gt;" style="swimlane;whiteSpace=wrap;html=1;startSize=40;fillColor=light-dark(#feb826, #ededed);strokeColor=light-dark(#feb826, #006f6f);strokeWidth=10;gradientColor=none;swimlaneFillColor=none;shadow=1;" vertex="1" parent="1">
          <mxGeometry x="30" y="510" width="710" height="480" as="geometry" />
        </mxCell>
        <mxCell id="VZ_0_rh7gBu1yl2dpmYh-77" value="&lt;font face=&quot;Cascadia Code SemiBold&quot; style=&quot;font-size: 15px;&quot;&gt;./db/Rollback/&lt;/font&gt;" style="swimlane;whiteSpace=wrap;html=1;startSize=40;fillColor=light-dark(#FF0000,#EDEDED);strokeColor=light-dark(#FF0000,#EDEDED);strokeWidth=10;" vertex="1" parent="VZ_0_rh7gBu1yl2dpmYh-52">
          <mxGeometry x="340" y="340" width="120" height="80" as="geometry" />
        </mxCell>
        <mxCell id="VZ_0_rh7gBu1yl2dpmYh-78" value="&lt;font style=&quot;font-size: 15px;&quot; face=&quot;Cascadia Code ExtraLight&quot; color=&quot;#00ffff&quot;&gt;ITBMXXX.sql&lt;/font&gt;" style="text;html=1;align=center;verticalAlign=middle;whiteSpace=wrap;rounded=0;" vertex="1" parent="VZ_0_rh7gBu1yl2dpmYh-77">
          <mxGeometry x="10" y="40" width="100" height="40" as="geometry" />
        </mxCell>
        <mxCell id="VZ_0_rh7gBu1yl2dpmYh-141" style="edgeStyle=orthogonalEdgeStyle;shape=connector;rounded=0;orthogonalLoop=1;jettySize=auto;html=1;entryX=0.429;entryY=1;entryDx=0;entryDy=0;entryPerimeter=0;strokeColor=#FF0000;strokeWidth=5;align=center;verticalAlign=middle;fontFamily=Helvetica;fontSize=11;fontColor=default;labelBackgroundColor=default;endArrow=classic;flowAnimation=1;startArrow=ERzeroToMany;startFill=0;" edge="1" parent="VZ_0_rh7gBu1yl2dpmYh-52" source="VZ_0_rh7gBu1yl2dpmYh-77" target="VZ_0_rh7gBu1yl2dpmYh-153">
          <mxGeometry relative="1" as="geometry">
            <mxPoint x="600.0459999999998" y="350.0000000000002" as="targetPoint" />
          </mxGeometry>
        </mxCell>
        <mxCell id="VZ_0_rh7gBu1yl2dpmYh-153" value="" style="html=1;verticalLabelPosition=bottom;align=center;labelBackgroundColor=#ffffff;verticalAlign=top;strokeWidth=2;strokeColor=light-dark(#020234, #32a0ff);shadow=0;dashed=0;shape=mxgraph.ios7.icons.data;fontFamily=Helvetica;fontSize=11;fontColor=default;fillColor=light-dark(#e1a322, #ededed);" vertex="1" parent="VZ_0_rh7gBu1yl2dpmYh-52">
          <mxGeometry x="560" y="240" width="70" height="100" as="geometry" />
        </mxCell>
        <mxCell id="VZ_0_rh7gBu1yl2dpmYh-79" style="edgeStyle=orthogonalEdgeStyle;shape=connector;rounded=0;orthogonalLoop=1;jettySize=auto;html=1;entryX=0;entryY=0.5;entryDx=0;entryDy=0;strokeColor=light-dark(#ffff33, #006f6f);strokeWidth=5;align=center;verticalAlign=middle;fontFamily=Helvetica;fontSize=11;fontColor=default;labelBackgroundColor=default;endArrow=classic;flowAnimation=1;startArrow=ERzeroToMany;startFill=0;" edge="1" parent="1" source="VZ_0_rh7gBu1yl2dpmYh-66" target="VZ_0_rh7gBu1yl2dpmYh-74">
          <mxGeometry relative="1" as="geometry" />
        </mxCell>
        <mxCell id="VZ_0_rh7gBu1yl2dpmYh-66" value="&lt;font face=&quot;Cascadia Code SemiBold&quot; style=&quot;font-size: 15px;&quot;&gt;Initialization&lt;/font&gt;" style="swimlane;whiteSpace=wrap;html=1;startSize=40;fillColor=light-dark(#FFFF33,#EDEDED);strokeColor=light-dark(#FFFF33,#EDEDED);strokeWidth=8;" vertex="1" parent="1">
          <mxGeometry x="70" y="580" width="170" height="80" as="geometry" />
        </mxCell>
        <mxCell id="VZ_0_rh7gBu1yl2dpmYh-71" style="edgeStyle=orthogonalEdgeStyle;shape=connector;rounded=0;orthogonalLoop=1;jettySize=auto;html=1;strokeColor=light-dark(#ff03ba, #006f6f);strokeWidth=5;align=center;verticalAlign=middle;fontFamily=Helvetica;fontSize=11;fontColor=default;labelBackgroundColor=default;endArrow=classic;flowAnimation=1;entryX=0;entryY=0.5;entryDx=0;entryDy=0;startArrow=ERzeroToMany;startFill=0;" edge="1" parent="1" target="VZ_0_rh7gBu1yl2dpmYh-66">
          <mxGeometry relative="1" as="geometry">
            <mxPoint x="40" y="629.9999999999998" as="targetPoint" />
            <mxPoint x="40" y="440" as="sourcePoint" />
            <Array as="points">
              <mxPoint x="40" y="440" />
              <mxPoint x="40" y="620" />
            </Array>
          </mxGeometry>
        </mxCell>
        <mxCell id="VZ_0_rh7gBu1yl2dpmYh-83" style="edgeStyle=orthogonalEdgeStyle;shape=connector;rounded=0;orthogonalLoop=1;jettySize=auto;html=1;entryX=0;entryY=0.5;entryDx=0;entryDy=0;strokeColor=#FF0000;strokeWidth=5;align=center;verticalAlign=middle;fontFamily=Helvetica;fontSize=11;fontColor=default;labelBackgroundColor=default;endArrow=classic;flowAnimation=1;" edge="1" parent="1" source="VZ_0_rh7gBu1yl2dpmYh-69" target="VZ_0_rh7gBu1yl2dpmYh-77">
          <mxGeometry relative="1" as="geometry" />
        </mxCell>
        <mxCell id="VZ_0_rh7gBu1yl2dpmYh-85" style="edgeStyle=orthogonalEdgeStyle;shape=connector;rounded=0;orthogonalLoop=1;jettySize=auto;html=1;strokeColor=light-dark(#ffff33, #006f6f);strokeWidth=5;align=center;verticalAlign=middle;fontFamily=Helvetica;fontSize=11;fontColor=default;labelBackgroundColor=default;endArrow=classic;flowAnimation=1;startArrow=ERzeroToMany;startFill=0;" edge="1" parent="1" source="VZ_0_rh7gBu1yl2dpmYh-74">
          <mxGeometry relative="1" as="geometry">
            <mxPoint x="600" y="620" as="targetPoint" />
          </mxGeometry>
        </mxCell>
        <mxCell id="VZ_0_rh7gBu1yl2dpmYh-86" style="edgeStyle=orthogonalEdgeStyle;shape=connector;rounded=0;orthogonalLoop=1;jettySize=auto;html=1;strokeColor=light-dark(#ff8000, #006f6f);strokeWidth=5;align=center;verticalAlign=middle;fontFamily=Helvetica;fontSize=11;fontColor=default;labelBackgroundColor=default;endArrow=classic;flowAnimation=1;entryX=0.024;entryY=0.616;entryDx=0;entryDy=0;entryPerimeter=0;exitX=0.5;exitY=1;exitDx=0;exitDy=0;startArrow=ERzeroToMany;startFill=0;" edge="1" parent="1" source="VZ_0_rh7gBu1yl2dpmYh-76" target="VZ_0_rh7gBu1yl2dpmYh-153">
          <mxGeometry relative="1" as="geometry">
            <mxPoint x="574.5439999999999" y="811.9099999999999" as="targetPoint" />
            <Array as="points">
              <mxPoint x="430" y="810" />
              <mxPoint x="573" y="810" />
              <mxPoint x="573" y="812" />
            </Array>
          </mxGeometry>
        </mxCell>
      </root>
    </mxGraphModel>
  </diagram>
</mxfile>
